<svg height="32" viewBox="0 0 112 32" width="112" xmlns="http://www.w3.org/2000/svg"><g><path d="m.768 8.768c0 1.152-.064 2.368-.384 3.264h3.264c-.256-.832-.32-1.856-.32-3.136v-4.352c.384-.384.96-.576 1.728-.576.96 0 1.28.384 1.28 1.28v3.648c0 1.216 0 2.304-.32 3.136h3.264c-.256-.896-.384-2.048-.384-3.264v-3.776c0-1.92-.64-2.88-2.624-2.88-1.536 0-2.624.96-3.072 2.176h.064v-2.176l-3.264.896c.384.448.768 1.28.768 2.24zm17.792 2.112c.064-.192.128-.32.192-.64-.128.064-.384.128-.512.128-.64 0-.896-.192-.896-1.024v-4.224c0-2.048-.96-3.072-3.456-3.072-1.92 0-3.84.96-3.84 2.304 0 .704.512 1.024 1.024 1.024.64 0 1.024-.32 1.216-1.28.128-.64.384-.896 1.024-.896 1.024 0 1.344.576 1.344 1.664v.256c0 1.024-.768 1.408-2.112 1.92-1.408.576-2.88 1.216-2.88 2.816 0 1.472 1.024 2.432 2.56 2.432 1.28 0 2.048-.576 2.496-1.792 0 .896.64 1.792 1.92 1.792 1.088-.064 1.664-.576 1.92-1.408zm-3.904-.704c-.192.384-.448.64-1.216.64s-1.216-.576-1.216-1.408c0-1.024.32-1.536 1.216-1.984.704-.32.96-.512 1.152-.832v3.584zm4.608-.832c0 1.856.768 2.88 2.752 2.88 1.152 0 1.984-.512 2.368-1.28.128-.256.192-.512.192-.832-.32.192-.704.256-1.408.256-.896 0-1.344-.384-1.344-1.408v-5.312h2.24l.256-1.344h-2.496v-2.304l-3.456 3.584v.064h.96v5.696zm5.888-.32c0 1.92.768 3.2 2.88 3.2 1.664 0 2.496-.896 2.88-2.112v1.92h2.88c-.192-.704-.384-1.408-.384-2.88v-6.912l-3.008.32c.32.832.384 1.728.384 2.688v4.544c-.384.448-.96.768-1.792.768-.96 0-1.344-.576-1.344-1.6v-6.72l-3.008.32c.32.832.384 1.728.384 2.688v3.776zm9.92-.256c0 1.152-.064 2.368-.384 3.264h3.264c-.192-.896-.32-2.048-.32-3.264v-2.432c0-1.472.576-2.368 1.088-2.368.192 0 .384.192.576.384s.448.384.896.384c.832 0 1.216-.576 1.216-1.344 0-.832-.512-1.344-1.536-1.344-1.088 0-1.92.704-2.368 2.496v-2.432l-3.2.896c.384.448.768 1.28.768 2.24zm10.688 3.456c2.176 0 3.328-1.344 3.712-2.816l-.064-.192c-.448.448-1.152 1.088-2.688 1.088-1.728 0-2.944-.96-2.944-3.392v-.256h5.696c0-3.008-1.152-4.608-3.648-4.608-2.624 0-4.608 2.112-4.608 5.376 0 3.136 2.048 4.8 4.544 4.8zm-.064-8.96c1.088 0 1.28.896 1.344 2.432l-3.264.256c.192-1.856.832-2.688 1.92-2.688zm-40.128 23.232c-1.664 0-2.752-1.024-2.752-3.584 0-2.176.768-3.52 2.048-3.52.64 0 .832.128.96.832.128.832.448 1.28 1.088 1.28.768 0 1.216-.448 1.216-1.216 0-1.024-.96-2.048-3.136-2.048-2.368 0-4.672 1.856-4.672 5.312 0 3.072 1.792 4.864 4.352 4.864 2.24 0 3.328-1.536 3.584-2.688v-.128c-.64.512-1.6.896-2.688.896zm6.208-9.6c0-.448 0-1.92.064-2.816l-3.392.896c.384.448.768 1.28.768 2.24v7.68c0 1.152-.064 2.368-.384 3.264h3.328c-.256-.896-.384-2.048-.384-3.264zm4.416-.768c0-.832-.64-1.536-1.6-1.536-.896 0-1.6.704-1.6 1.536s.64 1.536 1.6 1.536c.96.064 1.6-.704 1.6-1.536zm-.192 4.608.064-2.432h-.064l-3.328.896c.384.448.768 1.28.768 2.24v3.52c0 1.152-.064 2.368-.384 3.264h3.328c-.256-.896-.384-2.112-.384-3.264zm15.04.448c0-1.92-.512-2.88-2.56-2.88-1.536 0-2.496.96-2.88 2.176-.128-1.408-.704-2.176-2.496-2.176-1.536 0-2.496.96-2.944 2.176h-.064v-2.112l-3.2.896c.384.448.768 1.28.768 2.24v3.456c0 1.152-.064 2.368-.384 3.264h3.264c-.256-.832-.32-1.856-.32-3.136v-4.352c.448-.448.832-.576 1.6-.576.96 0 1.216.384 1.216 1.28v3.648c0 1.216 0 2.304-.32 3.136h3.264c-.256-.896-.384-2.048-.384-3.264v-4.224c.384-.448.832-.576 1.6-.576.96 0 1.216.384 1.216 1.28v3.648c0 1.216 0 2.304-.32 3.136h3.264c-.256-.896-.384-2.048-.384-3.264v-3.776zm8.384 4.416v-4.288c0-2.048-.96-3.072-3.456-3.072-1.92 0-3.84.96-3.84 2.304 0 .704.512 1.024 1.024 1.024.64 0 1.024-.32 1.216-1.28.128-.64.384-.896 1.024-.896 1.024 0 1.344.576 1.344 1.664v.192c0 1.024-.768 1.408-2.112 1.92-1.408.576-2.88 1.216-2.88 2.816 0 1.472 1.024 2.432 2.56 2.432 1.28 0 2.048-.576 2.496-1.792 0 .896.64 1.792 1.92 1.792 1.024 0 1.6-.512 1.856-1.344.064-.192.128-.32.192-.64-.128.064-.384.128-.512.128-.512 0-.832-.192-.832-.96zm-2.624.704c-.192.384-.448.64-1.216.64s-1.216-.576-1.216-1.408c0-1.024.32-1.536 1.216-1.984.704-.32.96-.512 1.152-.832v3.584zm7.168-1.152v-5.312h2.24l.256-1.344h-2.496v-2.24h-.064l-3.456 3.584h.96v5.696c0 1.856.768 2.88 2.752 2.88 1.152 0 1.984-.512 2.368-1.28.128-.256.192-.512.192-.832-.32.192-.704.256-1.408.256-.96 0-1.344-.384-1.344-1.408z"/><path d="m54.848 22.848c0-3.008-1.152-4.608-3.648-4.608-2.624 0-4.608 2.112-4.608 5.376 0 3.136 2.048 4.8 4.544 4.8 2.176 0 3.328-1.344 3.712-2.816l-.064-.192c-.448.448-1.152 1.088-2.688 1.088-1.728 0-2.944-.96-2.944-3.392v-.256zm-3.776-3.456c1.088 0 1.28.896 1.344 2.432l-3.264.256c.192-1.792.768-2.688 1.92-2.688zm11.712 7.104c-1.664 0-2.752-1.024-2.752-3.584 0-2.176.768-3.52 2.048-3.52.64 0 .832.128.96.832.128.832.448 1.28 1.088 1.28.768 0 1.216-.448 1.216-1.216 0-1.024-.96-2.048-3.136-2.048-2.368 0-4.672 1.856-4.672 5.312 0 3.072 1.792 4.864 4.352 4.864 2.24 0 3.328-1.536 3.584-2.688v-.128c-.64.512-1.6.896-2.688.896zm11.776-5.312c0-1.92-.64-2.88-2.624-2.88-1.536 0-2.496.96-2.944 2.112h-.064v-3.648l.064-2.56-3.328.896c.384.448.704 1.152.704 2.432v7.424c0 1.152-.064 2.368-.384 3.264h3.264c-.256-.832-.32-1.856-.32-3.136v-4.352c.384-.384.96-.576 1.728-.576.96 0 1.28.384 1.28 1.28v3.648c0 1.216 0 2.304-.32 3.136h3.264c-.256-.896-.384-2.048-.384-3.264v-3.776zm8.32 4.416v-4.288c0-2.048-.96-3.072-3.456-3.072-1.92 0-3.84.96-3.84 2.304 0 .704.512 1.024 1.024 1.024.64 0 1.024-.32 1.216-1.28.128-.64.384-.896 1.024-.896 1.024 0 1.344.576 1.344 1.664v.192c0 1.024-.768 1.408-2.112 1.92-1.472.576-2.88 1.216-2.88 2.816 0 1.472 1.024 2.432 2.56 2.432 1.28 0 2.048-.576 2.496-1.792 0 .896.64 1.792 1.92 1.792 1.024 0 1.6-.512 1.856-1.344.064-.192.128-.32.192-.64-.128.064-.384.128-.512.128-.512 0-.832-.192-.832-.96zm-2.56.704c-.192.384-.448.64-1.216.64s-1.216-.576-1.216-1.408c0-1.024.32-1.536 1.216-1.984.704-.32.96-.512 1.152-.832v3.584zm12.736-5.12c0-1.92-.64-2.88-2.624-2.88-1.536 0-2.624.96-3.072 2.176h-.064v-2.112l-3.2.896c.384.448.768 1.28.768 2.24v3.456c0 1.152-.064 2.368-.384 3.264h3.264c-.256-.832-.32-1.856-.32-3.136v-4.352c.384-.384.96-.576 1.728-.576.96 0 1.28.384 1.28 1.28v3.648c0 1.216 0 2.304-.32 3.136h3.264c-.256-.896-.384-2.048-.384-3.264zm7.808 4.928c-1.152 0-2.88.128-4.096.128-.64 0-.896-.256-.896-.64 0-.32.128-.576.384-.768.512.192 1.088.256 1.664.256 2.048 0 3.968-1.216 3.968-3.456 0-.768-.32-1.536-.896-2.176.128-.064.32-.128.448-.128.384 0 .512.192.64.384.192.192.384.512.832.512.64 0 .96-.512.96-1.152 0-.704-.576-1.152-1.408-1.152-.576 0-1.408.384-1.92 1.216h-.064c-.704-.576-1.728-.832-2.688-.832-2.048 0-3.968 1.216-3.968 3.456 0 1.344.832 2.304 1.984 2.752v.064c-.96.256-1.664.896-1.664 1.92s.832 1.792 1.792 1.984v.064c-1.344.192-2.496.64-2.496 1.536 0 1.024 1.28 1.856 4.416 1.856 3.328 0 5.44-1.28 5.44-3.648.064-1.536-.832-2.176-2.432-2.176zm-2.944-6.72c.896 0 1.6.768 1.6 2.176 0 1.664-.576 2.304-1.536 2.304s-1.6-.768-1.6-2.176c0-1.664.576-2.304 1.536-2.304zm0 11.52c-1.6 0-2.304-.512-2.304-1.28 0-.448.32-.832.768-.896s2.88-.192 3.904-.192c.768 0 1.152.192 1.152.832 0 .768-1.024 1.536-3.52 1.536z"/><path d="m108.864 26.496c-1.728 0-2.944-.96-2.944-3.392v-.256h5.696c0-3.008-1.152-4.608-3.648-4.608-2.624 0-4.608 2.112-4.608 5.376 0 3.136 2.048 4.8 4.544 4.8 2.176 0 3.328-1.344 3.712-2.816l-.064-.192c-.448.448-1.152 1.088-2.688 1.088zm-1.024-7.104c1.088 0 1.28.896 1.344 2.432l-3.264.256c.192-1.792.832-2.688 1.92-2.688z"/></g></svg>